<svg width="62" height="62" viewBox="0 0 62 62" fill="none" xmlns="http://www.w3.org/2000/svg">
<ellipse cx="30.5" cy="31" rx="21.5" ry="21" fill="white"/>
<path d="M31 0C13.875 0 0 13.875 0 31C0 48.125 13.875 62 31 62C48.125 62 62 48.125 62 31C62 13.875 48.125 0 31 0ZM29 41C29 42.1 28.1 43 27 43H21C19.9 43 19 42.1 19 41V21C19 19.9 19.9 19 21 19H27C28.1 19 29 19.9 29 21V41ZM43 41C43 42.1 42.1 43 41 43H35C33.9 43 33 42.1 33 41V21C33 19.9 33.9 19 35 19H41C42.1 19 43 19.9 43 21V41Z" fill="#191A23"/>
</svg>
